<svg xmlns:xlink="http://www.w3.org/1999/xlink" xmlns="http://www.w3.org/2000/svg" width="246px" height="246px" viewBox="0 0 246 246"><g id="footer_logo"><path d="M122.555 245.109C54.869 245.109 0 190.24 0 122.554C0 54.869 54.869 0 122.555 0C190.24 0 245.11 54.869 245.11 122.554C245.11 190.24 190.24 245.109 122.555 245.109" id="Shape" fill="#1A989A" stroke="none"></path><path d="M184.226 113.933C180.494 113.933 177.441 116.986 177.441 120.718L177.441 163.77C185.326 160.96 191.011 153.408 191.011 144.59L191.011 127.727L191.011 120.718C191.011 116.986 187.957 113.933 184.226 113.933" id="Shape" fill="#FFFFFF" stroke="none"></path><path d="M59.285 113.933C55.553 113.933 52.5 116.986 52.5 120.718L52.5 144.59C52.5 153.408 58.185 160.96 66.07 163.77L66.07 143.592L66.07 127.727L66.07 120.718C66.07 116.986 63.016 113.933 59.285 113.933" id="Shape" fill="#FFFFFF" stroke="none"></path><path d="M144.979 135.956L144.979 135.496C161.243 131.769 173.416 117.19 173.416 99.8111L173.416 93.1171C173.416 72.9261 156.989 56.5001 136.799 56.5001L106.712 56.5001C86.522 56.5001 70.095 72.9261 70.095 93.1171L70.095 99.8111C70.095 115.233 79.685 128.443 93.209 133.829L93.209 119.498C86.943 115.186 82.817 107.977 82.817 99.8111L82.817 93.1171C82.817 79.9411 93.536 69.2221 106.712 69.2221L136.799 69.2221C149.975 69.2221 160.694 79.9411 160.694 93.1171L160.694 99.8111C160.694 112.987 149.975 123.706 136.799 123.706L116.911 123.706L112.102 123.706L112.102 123.241C112.102 122.251 111.968 121.402 111.751 120.656C110.911 117.764 108.706 116.569 107.11 116.074C106.616 115.935 106.006 115.828 105.317 115.829C105.142 115.829 104.961 115.837 104.777 115.852C104.769 115.853 104.762 115.853 104.753 115.853C104.584 115.869 104.41 115.894 104.234 115.923C104.209 115.928 104.185 115.929 104.16 115.934C104 115.963 103.834 116.004 103.668 116.048C103.626 116.06 103.586 116.066 103.543 116.078C103.336 116.137 103.125 116.208 102.911 116.292C102.854 116.315 102.798 116.337 102.74 116.361C102.573 116.433 102.404 116.512 102.234 116.601C102.045 116.697 101.856 116.807 101.668 116.926C101.623 116.955 101.577 116.988 101.531 117.019C101.384 117.117 101.238 117.222 101.094 117.335C101.048 117.371 101.004 117.409 100.958 117.446C100.809 117.571 100.662 117.706 100.519 117.85C100.486 117.882 100.454 117.913 100.422 117.946C100.249 118.128 100.081 118.322 99.923 118.535C99.493 119.114 99.128 119.81 98.882 120.656C98.666 121.402 98.532 122.251 98.532 123.241L98.532 165.483C98.532 168.646 96.449 171.535 93.37 172.261C88.943 173.305 84.962 169.928 84.962 165.667L84.962 149.802L84.962 142.793C84.962 139.061 81.909 136.008 78.177 136.008C74.446 136.008 71.393 139.061 71.393 142.793L71.393 166.665C71.393 177.86 80.552 187.019 91.747 187.019C102.942 187.019 112.102 177.86 112.102 166.665L112.102 153.026L112.102 150.007L112.102 143.791L112.102 141.075L112.102 141.071L112.102 136.428L131.409 136.428L131.409 166.665C131.409 177.86 140.569 187.019 151.764 187.019C162.959 187.019 172.119 177.86 172.119 166.665L172.119 149.802L172.119 142.793C172.119 139.061 169.065 136.008 165.333 136.008C161.602 136.008 158.549 139.061 158.549 142.793L158.549 165.667C158.549 169.928 154.567 173.305 150.141 172.261C147.062 171.535 144.979 168.646 144.979 165.483L144.979 145.804L144.979 135.956L144.979 135.956Z" id="Shape" fill="#FFFFFF" stroke="none"></path></g></svg>